<?xml version="1.0" standalone="no"?>
<!DOCTYPE svg PUBLIC "-//W3C//DTD SVG 20010904//EN"
 "http://www.w3.org/TR/2001/REC-SVG-20010904/DTD/svg10.dtd">
<svg version="1.0" xmlns="http://www.w3.org/2000/svg"
 width="934.000000pt" height="1280.000000pt" viewBox="0 0 934.000000 1280.000000"
 preserveAspectRatio="xMidYMid meet">
<metadata>
Created by potrace 1.15, written by Peter Selinger 2001-2017
</metadata>
<g transform="translate(0.000000,1280.000000) scale(0.100000,-0.100000)"
fill="#000000" stroke="none">
<path d="M4405 12793 c-320 -25 -478 -47 -721 -99 -736 -157 -1428 -497 -2019
-993 -128 -107 -379 -355 -506 -499 -589 -670 -974 -1506 -1108 -2402 -38
-259 -46 -378 -45 -705 0 -341 11 -477 60 -770 227 -1360 1046 -2555 2234
-3260 105 -62 375 -205 409 -216 23 -8 1 -133 -105 -609 -149 -663 -256 -1069
-334 -1266 -17 -41 -80 -180 -140 -310 -126 -267 -132 -283 -206 -494 -74
-214 -91 -274 -113 -430 -32 -218 -77 -322 -156 -359 -26 -12 -72 -39 -103
-60 -72 -49 -146 -86 -200 -100 -47 -13 -63 -44 -43 -87 13 -30 70 -66 94 -60
11 3 17 -2 17 -14 0 -24 26 -43 49 -37 12 3 22 -1 25 -9 10 -25 55 -16 87 18
24 27 35 32 67 29 20 -1 45 -10 54 -18 16 -15 22 -14 60 3 23 10 63 37 89 59
26 22 89 63 141 90 125 67 161 106 243 267 65 126 74 139 184 248 83 83 141
131 203 168 286 171 323 283 176 524 -28 46 -57 100 -64 122 -19 52 -17 161 4
218 48 131 151 354 290 628 283 556 302 594 346 700 25 58 49 117 55 132 10
27 12 26 214 -185 359 -374 478 -513 541 -635 31 -61 43 -95 39 -113 -9 -50
16 -197 47 -276 27 -66 31 -86 26 -133 -4 -30 -6 -77 -6 -103 1 -65 -27 -123
-94 -196 -56 -61 -70 -90 -64 -132 2 -18 13 -26 48 -36 41 -12 47 -11 73 7 24
18 36 20 90 13 34 -4 69 -6 77 -4 31 6 179 103 209 136 35 40 54 101 45 142
-3 15 -22 73 -41 128 -21 60 -37 128 -40 170 -6 82 10 123 93 235 46 61 49 68
48 125 0 102 -41 155 -214 283 -141 104 -195 158 -292 289 -108 145 -348 546
-335 559 3 3 53 -2 111 -11 388 -57 908 -59 1296 -5 908 127 1752 512 2430
1107 147 129 403 389 512 520 543 651 892 1412 1032 2248 48 285 60 437 60
775 0 338 -12 489 -60 775 -248 1485 -1186 2755 -2531 3429 -532 266 -1138
430 -1758 476 -127 9 -481 11 -580 3z m630 -1058 c596 -63 1152 -263 1640
-588 772 -516 1321 -1312 1529 -2217 129 -564 124 -1140 -15 -1700 -256 -1034
-938 -1893 -1888 -2377 -126 -64 -149 -72 -180 -67 -73 14 -111 60 -111 134 0
23 -10 61 -24 89 -17 33 -44 148 -91 382 -108 547 -146 683 -250 883 -40 78
-87 178 -105 222 -39 98 -34 113 40 107 l45 -3 -41 15 c-35 13 -41 20 -36 37
3 11 14 23 24 26 14 3 16 7 7 13 -10 6 -10 11 0 23 8 9 10 16 5 16 -5 0 -2 5
6 10 13 8 12 10 -4 10 -20 0 -20 0 0 15 18 14 17 14 -16 15 l-35 1 37 33 c38
33 40 46 6 46 -10 0 -18 5 -18 10 0 6 6 10 13 10 8 0 24 9 37 20 13 11 18 20
12 20 -18 0 -1 38 19 43 19 5 27 37 9 37 -6 0 -5 8 2 21 11 17 10 22 -4 33
-12 9 -14 16 -7 23 8 8 5 17 -10 32 -12 12 -25 21 -31 21 -5 0 -10 3 -9 8 2
14 -14 52 -22 52 -5 0 -6 7 -3 15 4 10 0 15 -15 15 -23 0 -28 15 -8 23 7 4 3
8 -10 12 -30 9 -29 17 7 55 36 38 36 40 10 33 -15 -4 -20 0 -20 16 0 14 -5 19
-15 15 -9 -4 -15 -1 -15 7 0 13 -40 42 -80 60 -8 4 -32 23 -53 43 -38 38 -46
75 -25 119 10 20 10 20 -47 6 -37 -9 -46 -16 -55 -45 l-11 -33 -92 77 c-112
94 -139 111 -242 152 -121 48 -311 148 -360 189 -23 20 -58 48 -77 63 -31 24
-108 150 -108 177 0 6 17 11 39 11 47 0 75 29 86 87 4 23 22 54 46 80 32 35
39 50 39 84 0 22 3 39 8 37 4 -2 20 -10 35 -18 25 -12 32 -11 73 9 26 12 44
27 41 34 -18 48 -17 54 8 67 14 8 46 39 71 69 l46 56 -5 68 -6 67 29 0 c17 0
40 10 54 24 26 24 73 25 88 3 15 -24 95 32 122 85 9 17 19 22 38 20 46 -6 68
14 68 59 0 85 -57 149 -132 149 -21 0 -51 8 -68 19 l-31 18 42 7 c53 8 99 54
99 100 0 28 5 33 55 55 83 36 124 95 96 139 -5 9 -10 1 -15 -27 -7 -43 -36
-71 -108 -104 l-38 -17 -15 36 c-21 51 -19 63 13 70 50 11 53 14 69 54 12 29
22 40 37 40 20 1 20 2 4 14 -10 7 -18 22 -18 32 -1 36 -27 92 -62 135 -33 41
-35 48 -31 96 5 49 3 55 -29 87 -33 33 -73 50 -149 62 -46 8 -73 -16 -89 -78
-17 -65 -18 -68 -36 -68 -24 0 -75 40 -68 52 4 7 2 8 -5 4 -19 -12 -119 80
-146 134 -35 68 -86 110 -136 110 -37 0 -41 -3 -56 -37 -11 -28 -14 -57 -10
-111 l6 -73 -34 43 c-30 40 -32 45 -19 70 8 15 14 37 14 50 0 34 55 123 94
153 49 37 101 42 151 13 77 -45 125 -136 145 -279 l9 -64 -4 75 c-5 102 -37
189 -89 247 -40 44 -46 47 -102 50 -52 4 -64 1 -106 -26 -26 -16 -63 -54 -82
-83 -20 -29 -36 -47 -36 -39 0 7 9 24 20 38 27 34 26 79 -1 94 -29 15 -104 4
-138 -20 l-28 -20 -16 34 c-40 84 -201 98 -247 22 -49 -80 -2 -177 85 -177 15
0 24 -4 20 -10 -3 -5 -22 -10 -41 -10 -44 0 -177 -61 -198 -92 -9 -12 -19 -44
-22 -70 l-6 -47 -29 21 c-15 12 -31 34 -34 50 -16 70 -124 78 -154 11 -18 -39
-12 -51 7 -13 28 57 90 52 113 -9 8 -19 5 -29 -12 -48 -13 -12 -33 -23 -46
-23 -33 0 -61 -16 -105 -58 l-38 -36 0 77 c0 73 -1 77 -22 77 -13 0 -18 -4
-13 -8 15 -10 17 -89 5 -128 -8 -22 -18 -34 -29 -34 -10 0 -31 -10 -46 -21
-22 -18 -26 -27 -21 -54 8 -40 -11 -51 -35 -22 -22 28 -120 35 -186 13 -49
-16 -109 -68 -132 -113 -6 -12 -11 -47 -11 -78 0 -95 60 -184 158 -234 26 -13
44 -33 57 -60 11 -25 32 -49 53 -61 32 -20 34 -22 19 -37 -14 -14 -22 -15 -55
-5 -83 25 -109 3 -75 -65 30 -61 109 -101 160 -82 22 8 22 7 17 -79 -9 -167
-9 -167 -80 -247 -35 -41 -64 -84 -64 -95 0 -13 12 -28 30 -38 37 -21 45 -40
25 -62 -18 -20 -19 -42 -3 -58 8 -8 8 -15 -2 -26 -16 -21 -6 -46 19 -46 27 0
37 -41 21 -81 -28 -67 -4 -130 57 -150 36 -11 216 -7 289 7 29 5 40 -1 105
-58 73 -63 75 -67 121 -184 26 -65 47 -122 48 -126 1 -20 -80 -93 -132 -119
-154 -78 -214 -194 -173 -335 9 -32 43 -116 76 -186 32 -69 59 -132 59 -139 0
-19 -23 -79 -31 -79 -3 0 -16 23 -28 50 -12 28 -23 50 -25 50 -2 0 -14 -16
-25 -36 -65 -110 -84 -268 -41 -357 28 -60 108 -139 207 -207 131 -90 114 -64
229 -338 35 -85 64 -168 64 -185 0 -18 9 -85 20 -150 l19 -119 -30 -60 c-28
-56 -31 -59 -48 -44 -13 12 -25 14 -47 7 -16 -4 -35 -6 -41 -4 -7 3 -22 -16
-35 -41 -12 -25 -26 -46 -30 -46 -4 0 -8 -9 -8 -21 0 -11 -4 -17 -10 -14 -5 3
-10 1 -10 -4 0 -22 -18 -10 -26 17 -6 23 -8 24 -12 7 -4 -16 -7 -14 -23 15
l-20 35 7 -42 c5 -38 3 -43 -13 -43 -11 0 -24 -5 -30 -11 -9 -9 -13 -2 -18 25
-4 20 -13 36 -20 36 -7 0 -18 7 -25 15 -9 11 -15 13 -20 5 -11 -18 -50 10 -50
35 0 11 -5 27 -10 35 -7 11 -10 6 -10 -22 0 -34 -2 -37 -27 -34 -16 2 -28 5
-28 6 0 1 -19 2 -42 3 -23 1 -39 -1 -37 -5 8 -13 -11 -9 -25 5 -11 10 -12 8
-6 -10 8 -27 -7 -30 -45 -8 -34 20 -43 18 -37 -5 7 -25 3 -25 -34 2 -21 16
-32 19 -37 11 -6 -9 -16 -8 -41 4 -23 11 -35 13 -40 5 -3 -6 -13 -10 -21 -10
-35 3 -79 -16 -91 -38 -7 -14 -23 -27 -36 -30 -13 -4 -23 -10 -23 -15 0 -5 -7
-9 -15 -9 -8 0 -15 -7 -15 -16 0 -11 -6 -14 -22 -9 -17 6 -20 4 -15 -9 8 -20
-12 -21 -59 -1 -30 12 -35 13 -31 1 3 -8 -1 -17 -9 -20 -9 -3 -12 -10 -9 -16
3 -5 2 -10 -4 -10 -10 0 -41 -55 -41 -72 0 -5 -12 -25 -26 -44 -40 -52 -81
-48 -175 18 -325 226 -668 573 -900 908 -743 1072 -855 2483 -289 3656 309
643 765 1151 1375 1533 208 130 560 292 795 366 241 75 558 137 805 158 122
11 534 5 660 -8z m-936 -1429 c30 -16 91 -80 91 -96 0 -6 -12 -10 -27 -10 -16
0 -43 -9 -61 -20 -39 -24 -63 -25 -102 -5 -59 30 -62 75 -9 120 35 28 67 32
108 11z m258 -58 c18 -14 16 -44 -3 -74 -15 -22 -19 -23 -38 -11 -11 8 -38 19
-58 26 -21 7 -38 14 -38 16 0 50 94 79 137 43z m-171 -74 c-3 -9 -6 -31 -6
-50 0 -28 -4 -34 -21 -34 -17 0 -20 4 -15 23 3 12 6 34 6 50 0 21 5 27 21 27
15 0 19 -4 15 -16z m117 -16 c23 -12 14 -25 -26 -37 -26 -7 -28 -9 -9 -10 13
-1 32 4 43 9 11 6 23 8 28 6 10 -6 -12 -93 -22 -88 -4 2 -29 13 -57 25 l-50
21 0 52 0 52 38 -10 c20 -6 45 -14 55 -20z m-163 -3 c0 -8 -5 -25 -11 -39 -9
-18 -18 -24 -38 -21 -31 4 -30 18 7 50 31 28 42 31 42 10z m-263 -142 c-6 -16
-26 -47 -44 -71 l-33 -44 0 37 c0 29 8 45 34 71 42 42 60 45 43 7z m1198 -84
c29 -26 35 -38 35 -70 0 -21 -4 -39 -10 -39 -5 0 -10 6 -10 14 0 7 -13 39 -28
70 -16 31 -28 56 -26 56 2 0 19 -14 39 -31z m115 -277 c13 -50 14 -49 -17 -57
-16 -3 -43 -20 -60 -38 -26 -24 -33 -27 -33 -14 0 30 27 85 48 96 11 6 23 22
26 36 8 33 23 24 36 -23z m-1903 -8 c10 -26 -9 -45 -65 -66 -29 -11 -60 -31
-70 -44 -9 -14 -27 -38 -40 -54 -28 -36 -23 -63 16 -79 45 -19 60 -49 52 -101
l-7 -45 -65 67 c-138 140 -126 247 34 306 29 10 60 22 68 25 31 12 71 7 77 -9z
m-52 -95 c-16 -11 -43 -27 -58 -35 -27 -14 -28 -14 -18 4 11 20 66 51 91 52 8
0 2 -9 -15 -21z m1951 -7 c-6 -19 -30 -32 -85 -47 -34 -10 -20 7 36 44 50 33
58 34 49 3z m-1946 -50 c0 -15 4 -43 10 -62 14 -48 1 -56 -52 -32 -64 28 -68
55 -16 93 51 36 58 36 58 1z m1853 -87 c9 -20 17 -38 17 -40 0 -3 -46 -28
-101 -56 -74 -37 -105 -47 -113 -39 -18 18 4 39 64 63 35 14 56 29 60 42 5 20
39 62 51 64 3 1 13 -15 22 -34z m-1883 -47 c0 -13 -23 -5 -28 10 -2 7 2 10 12
6 9 -3 16 -11 16 -16z m1906 -50 c-10 -52 -28 -62 -114 -66 -51 -3 -74 -1 -67
6 12 13 167 92 179 92 5 0 6 -15 2 -32z m43 -162 c15 -8 32 -26 39 -41 17 -36
15 -49 -4 -31 -8 9 -32 16 -53 16 -31 0 -38 4 -48 29 -6 17 -8 32 -5 35 10 10
42 6 71 -8z m-1912 -100 c15 -13 25 -27 21 -31 -17 -17 -88 20 -88 46 0 18 39
9 67 -15z m1963 -41 c0 -8 -7 -15 -15 -15 -13 0 -14 3 -3 15 16 18 18 18 18 0z
m-173 -1647 c-3 -8 -6 -5 -6 6 -1 11 2 17 5 13 3 -3 4 -12 1 -19z m398 -1549
c58 -127 117 -280 175 -455 49 -145 87 -264 85 -264 -2 0 -15 20 -29 44 -24
42 -28 44 -55 36 -21 -6 -35 -4 -48 6 -26 19 -30 18 -38 -18 l-7 -33 -15 50
c-71 252 -132 388 -218 490 l-53 62 19 29 c18 29 18 30 -8 63 -39 50 -39 91 0
128 27 25 70 49 98 52 3 1 45 -85 94 -190z m-2450 -909 c-3 -5 -10 -10 -16
-10 -5 0 -9 5 -9 10 0 6 7 10 16 10 8 0 12 -4 9 -10z m2705 -284 c0 -2 -7 -6
-15 -10 -8 -3 -15 -1 -15 4 0 6 7 10 15 10 8 0 15 -2 15 -4z"/>
</g>
</svg>
