<?xml version="1.0" standalone="no"?>
<!DOCTYPE svg PUBLIC "-//W3C//DTD SVG 20010904//EN"
 "http://www.w3.org/TR/2001/REC-SVG-20010904/DTD/svg10.dtd">
<svg version="1.0" xmlns="http://www.w3.org/2000/svg"
 width="1280.000000pt" height="1232.000000pt" viewBox="0 0 1280.000000 1232.000000"
 preserveAspectRatio="xMidYMid meet">
<metadata>
Created by potrace 1.15, written by Peter Selinger 2001-2017
</metadata>
<g transform="translate(0.000000,1232.000000) scale(0.100000,-0.100000)"
fill="#ffffff" stroke="none">
<path d="M6515 12220 c-88 -8 -197 -35 -252 -64 -39 -20 -76 -62 -106 -119
-14 -27 -32 -54 -41 -60 -8 -7 -24 -34 -34 -62 -11 -27 -38 -93 -59 -145 -22
-52 -48 -126 -58 -165 -10 -38 -29 -104 -42 -145 -30 -94 -52 -200 -46 -220 4
-12 3 -12 -5 -2 -7 11 -11 8 -16 -11 -3 -14 -8 -33 -12 -44 -3 -11 1 -8 11 7
l16 25 -6 -30 c-4 -16 -7 -40 -7 -52 0 -13 -3 -21 -7 -19 -3 2 -7 -8 -8 -22 0
-15 -3 -56 -5 -91 -5 -58 -4 -61 9 -40 13 22 14 20 10 -29 -2 -29 0 -55 4 -58
5 -3 9 0 9 6 0 6 11 22 25 36 13 13 29 33 35 44 6 11 16 20 21 20 6 0 20 11
31 25 29 37 42 31 60 -27 17 -56 15 -74 -7 -45 -11 15 -13 16 -19 2 -5 -15 0
-18 40 -30 21 -6 44 -92 33 -127 -5 -18 -9 -47 -9 -65 0 -25 5 -32 23 -35 18
-2 23 -10 25 -41 3 -40 38 -91 55 -80 6 3 7 1 3 -5 -9 -14 25 -82 64 -126 29
-32 30 -38 30 -122 0 -169 -33 -292 -98 -363 -74 -82 -246 -161 -392 -181
-105 -14 -170 -37 -242 -83 -70 -45 -179 -147 -265 -249 -45 -54 -69 -75 -74
-66 -5 7 -2 19 6 28 15 16 38 70 30 70 -3 0 -10 -11 -15 -24 -8 -23 -81 -66
-112 -66 -9 0 -19 -11 -22 -25 -4 -15 -21 -32 -44 -44 -20 -10 -51 -39 -68
-63 -23 -32 -45 -49 -88 -67 -32 -13 -61 -20 -65 -15 -11 15 -54 17 -48 2 2
-7 10 -12 16 -10 7 1 10 -2 7 -6 -3 -5 -17 -7 -31 -4 -18 3 -25 0 -25 -11 0
-9 -24 -24 -62 -38 -55 -21 -78 -24 -172 -22 -85 2 -115 -1 -133 -12 -13 -9
-31 -14 -41 -13 -16 3 -52 -52 -64 -100 -4 -15 -24 -22 -99 -36 -52 -9 -128
-28 -171 -42 l-76 -25 -100 50 c-55 28 -136 71 -179 97 -140 83 -191 104 -274
116 -60 9 -92 9 -137 0 -32 -7 -73 -12 -92 -12 -44 0 -137 -45 -145 -70 -3
-11 -4 -29 0 -39 3 -11 1 -22 -5 -26 -5 -3 -10 -17 -10 -30 0 -24 93 -122 153
-160 17 -11 44 -33 59 -50 l26 -30 126 0 c69 1 126 -3 126 -8 0 -5 -14 -26
-31 -48 -24 -30 -44 -43 -100 -61 l-69 -22 0 -60 c0 -57 -3 -65 -44 -117 -24
-30 -70 -77 -102 -104 -32 -27 -63 -53 -68 -57 -6 -5 3 -21 21 -40 57 -60 56
-133 -4 -199 l-35 -39 41 0 c37 0 41 -2 41 -25 0 -14 -11 -48 -25 -75 -14 -27
-25 -52 -25 -54 0 -3 20 -3 44 0 43 6 46 5 85 -37 60 -65 67 -88 42 -137 -11
-22 -17 -42 -14 -46 4 -3 21 -6 39 -6 41 0 54 -21 54 -87 0 -33 -9 -66 -29
-104 l-28 -56 20 -24 c17 -20 19 -34 14 -94 -6 -84 -38 -168 -104 -273 l-47
-76 27 -75 c25 -72 27 -86 27 -271 1 -107 -4 -228 -10 -269 -12 -83 -10 -86
48 -97 23 -4 41 -18 57 -43 32 -45 31 -53 -4 -104 -33 -49 -61 -102 -61 -116
0 -17 39 1 55 26 16 24 17 24 30 6 8 -10 15 -38 15 -63 0 -32 3 -41 10 -30 6
10 12 11 19 5 5 -6 0 -45 -15 -105 -13 -52 -23 -115 -22 -139 3 -40 6 -45 33
-54 17 -5 51 -23 77 -41 40 -27 51 -41 74 -101 58 -154 102 -296 114 -366 14
-92 40 -188 51 -195 15 -9 11 -19 -23 -62 -50 -61 -123 -114 -220 -157 -49
-22 -88 -42 -88 -45 0 -4 45 -15 100 -25 124 -23 163 -44 217 -120 76 -108 97
-198 68 -292 -5 -16 -2 -23 14 -28 19 -6 21 -14 21 -78 0 -40 -5 -103 -11
-142 -6 -38 -12 -140 -14 -225 -3 -157 -21 -266 -58 -352 -15 -36 -15 -38 4
-38 10 0 19 -4 19 -8 0 -32 -62 -297 -79 -335 l-21 -48 41 23 c33 18 43 20 57
10 9 -7 34 -20 54 -30 42 -19 41 -13 18 -167 -7 -47 -10 -121 -6 -180 4 -70 1
-118 -9 -160 -28 -118 -12 -139 21 -27 8 29 20 50 25 47 5 -4 9 4 9 17 0 33
11 68 21 68 4 0 11 -17 15 -38 l7 -37 16 46 c9 25 28 60 44 78 l27 33 35 -22
c48 -30 75 -78 75 -134 0 -29 4 -45 10 -41 6 3 10 19 10 34 0 18 12 38 35 61
37 36 40 49 6 30 -17 -8 -21 -8 -21 3 0 30 30 224 40 257 17 57 70 318 85 420
10 65 15 186 15 384 0 159 2 287 5 284 3 -2 7 -85 9 -184 2 -98 9 -195 15
-214 6 -19 11 -66 11 -105 1 -112 45 -185 113 -185 39 0 43 22 18 99 -33 103
-42 193 -30 298 10 79 9 99 -5 133 -23 58 -15 67 62 74 l67 7 155 -81 c154
-81 207 -97 318 -100 20 0 22 -5 22 -49 0 -108 -43 -477 -81 -691 -45 -252
-144 -600 -228 -794 -35 -83 -42 -87 -266 -166 -231 -81 -244 -90 -210 -150
41 -71 3 -119 -171 -216 -60 -34 -194 -109 -299 -167 -202 -113 -254 -135
-378 -162 -43 -10 -74 -21 -67 -25 6 -4 56 -5 110 -2 142 7 187 -16 156 -77
-23 -43 -34 -48 -156 -60 -79 -7 -142 -20 -200 -41 -47 -16 -86 -30 -87 -30
-2 0 -3 -9 -3 -19 0 -21 36 -51 112 -95 26 -15 86 -62 133 -104 138 -123 164
-137 254 -137 54 0 100 8 161 27 47 14 124 31 173 37 69 8 123 24 255 77 215
85 271 104 276 95 3 -4 -15 -17 -40 -30 -26 -14 -44 -31 -44 -41 0 -10 -7 -23
-15 -30 -22 -19 -18 -43 13 -72 52 -49 94 -60 290 -79 126 -11 168 -26 182
-65 14 -37 53 -47 150 -37 47 4 89 8 95 8 5 0 19 -17 30 -37 12 -23 27 -38 38
-38 30 0 54 -18 61 -45 4 -14 11 -25 16 -25 6 0 35 -24 64 -54 50 -50 59 -54
114 -61 33 -4 71 -14 84 -23 14 -9 45 -30 68 -47 42 -29 45 -30 214 -37 95 -3
202 -14 240 -22 100 -24 124 -21 263 35 254 100 275 111 287 141 12 33 16 34
66 8 21 -11 85 -31 142 -44 58 -14 129 -34 159 -45 78 -30 100 -27 176 24 99
67 145 78 241 60 42 -8 97 -15 121 -15 41 0 48 4 99 60 45 49 66 63 109 76 64
18 103 49 149 118 19 28 51 60 72 72 30 17 38 27 40 55 5 43 16 56 55 64 21 4
47 24 73 53 l42 47 98 1 c137 1 144 2 144 18 0 26 51 75 88 85 20 6 103 14
183 20 102 6 156 14 178 26 22 11 45 15 69 11 21 -3 132 -21 249 -41 117 -19
247 -37 290 -41 160 -13 275 34 382 155 78 89 215 227 325 327 55 49 77 76 74
89 -5 30 -61 61 -140 79 -150 35 -157 38 -192 77 -95 104 -60 254 74 321 30
16 97 36 148 47 92 19 131 35 101 45 -8 2 -45 14 -83 26 -92 28 -138 52 -281
147 -163 108 -241 152 -369 209 -134 60 -166 87 -166 142 0 82 -42 99 -263
109 -139 6 -148 7 -152 27 -2 12 -9 77 -15 146 -6 69 -17 163 -25 210 -7 47
-19 139 -25 205 -6 66 -21 166 -32 222 l-20 101 31 84 c47 121 48 152 12 295
-28 109 -31 137 -31 270 0 90 8 208 20 302 30 231 36 427 16 531 l-16 84 36
111 c24 74 38 137 41 192 4 53 9 80 16 76 6 -3 3 4 -6 18 -9 13 -17 31 -17 41
0 10 -9 44 -20 75 -12 38 -24 122 -35 248 -18 215 -38 351 -67 443 -23 74 -19
91 35 149 l40 44 -16 72 c-13 55 -14 82 -7 114 18 75 50 129 92 153 36 20 38
24 32 58 -5 37 -4 38 65 84 l70 46 79 -53 c143 -96 191 -113 214 -75 9 14 24
20 50 20 41 0 68 27 68 67 0 19 5 23 30 23 16 0 54 -9 85 -21 30 -11 63 -18
74 -14 31 9 54 53 47 87 -6 30 -5 30 25 24 42 -8 77 2 84 25 9 27 -8 44 -73
74 -57 26 -262 143 -294 169 -30 23 -22 39 15 32 75 -16 93 -16 111 -2 17 14
18 17 3 38 -40 58 -63 77 -102 82 -22 3 -61 8 -88 12 -38 5 -62 1 -122 -21
-41 -15 -92 -40 -114 -55 l-39 -28 -12 56 c-8 43 -9 69 0 106 8 39 8 51 -2 58
-7 4 -48 28 -90 53 -66 39 -81 44 -103 35 -39 -15 -41 -14 -64 41 -11 29 -45
88 -75 133 -29 45 -65 102 -80 128 -14 26 -52 75 -83 108 l-56 61 -6 143 c-7
166 -15 185 -88 211 -91 33 -173 74 -231 115 -91 65 -221 174 -222 185 0 6 -8
15 -17 21 -10 6 -26 27 -36 45 l-18 34 20 -24 c12 -13 21 -19 21 -15 0 5 9 -2
20 -16 15 -19 22 -22 28 -12 7 10 11 10 22 -3 7 -8 17 -15 22 -15 6 0 5 7 -2
15 -10 12 -10 15 4 15 9 0 16 5 16 10 0 13 -13 13 -28 -2 -8 -8 -15 -8 -28 3
-16 12 -17 12 -9 -1 4 -8 -8 3 -27 25 -20 22 -33 44 -30 49 3 5 11 1 19 -9 7
-11 13 -14 13 -8 0 5 -9 18 -19 27 -11 10 -23 31 -26 47 -4 17 -22 50 -41 74
-19 25 -34 52 -34 59 0 8 -6 21 -12 28 -45 48 -83 107 -89 137 l-7 36 -1 -38
c0 -21 4 -47 10 -59 9 -17 8 -19 -7 -16 -12 2 -33 41 -65 121 -57 142 -96 209
-168 288 -78 87 -129 110 -271 120 -129 9 -244 35 -318 73 -54 27 -102 77
-102 105 0 10 33 47 73 83 40 36 86 85 102 109 16 24 52 75 79 112 52 73 86
150 86 195 0 15 10 80 22 144 18 91 27 118 40 122 13 3 18 15 20 48 0 23 2 48
3 53 12 74 20 105 33 130 67 130 36 391 -68 578 -28 49 -50 96 -50 103 0 7 -4
14 -9 16 -8 3 -71 139 -71 153 0 3 6 3 13 -1 7 -4 9 -3 4 2 -5 5 -13 9 -18 9
-5 0 -17 12 -27 26 -9 15 -43 54 -74 88 -32 33 -60 71 -63 84 -4 13 -16 29
-27 36 -21 13 -21 13 0 -14 35 -44 26 -47 -28 -9 -27 20 -50 38 -50 40 0 2 12
2 28 -1 15 -4 -7 8 -48 25 -41 17 -84 41 -95 54 -18 20 -113 88 -118 85 -1 -1
-43 -5 -92 -9z m841 -3185 c30 -46 105 -246 99 -264 -3 -11 9 -47 31 -89 43
-82 53 -149 34 -228 -11 -45 -11 -83 -1 -212 14 -173 27 -246 65 -369 26 -85
35 -145 61 -398 34 -324 115 -927 156 -1165 26 -143 72 -327 137 -535 27 -88
61 -223 76 -300 32 -165 78 -350 141 -570 58 -202 56 -229 -10 -110 -205 370
-338 815 -405 1350 -44 358 -108 570 -253 845 -77 146 -119 198 -167 206 -41
8 -90 49 -90 77 0 11 -12 45 -26 75 -22 47 -24 58 -14 78 19 35 -3 105 -64
204 l-52 86 6 117 c6 108 9 118 32 140 14 13 29 39 33 58 4 19 25 92 46 162
21 71 39 137 39 146 0 10 14 61 32 112 29 88 32 105 36 268 3 125 1 185 -9
215 -20 66 -6 126 31 126 11 0 27 -11 36 -25z m-1731 -5 c-13 -22 -45 -226
-45 -289 0 -36 7 -90 14 -119 9 -31 12 -75 9 -105 -3 -31 3 -104 16 -182 12
-71 24 -144 26 -161 3 -18 15 -43 26 -58 18 -23 19 -37 16 -142 l-4 -117 -58
-76 c-67 -88 -109 -172 -100 -201 7 -21 -6 -51 -41 -93 -13 -15 -28 -45 -34
-65 -15 -53 -54 -92 -104 -106 -66 -17 -124 -92 -212 -271 -70 -144 -154 -369
-154 -413 0 -11 -9 -49 -20 -84 -26 -83 -57 -319 -70 -538 -39 -649 -140
-1084 -354 -1525 l-63 -130 -8 98 c-8 102 -2 157 60 612 13 99 31 252 39 340
13 148 18 169 59 275 25 63 54 149 65 190 27 95 117 542 137 680 8 58 29 148
47 200 32 99 194 563 272 782 53 150 73 223 121 458 31 148 37 203 42 352 4
113 2 198 -5 235 -16 82 -4 121 50 172 34 31 47 51 52 80 5 33 18 50 83 108
79 69 121 102 136 102 5 1 5 -4 2 -9z m4002 -1907 c46 -19 55 -33 23 -33 -26
0 -80 27 -80 40 0 14 8 13 57 -7z m-5337 -3029 c-10 -85 -34 -154 -47 -140 -4
4 32 203 43 235 2 8 7 11 11 8 3 -4 0 -50 -7 -103z m3690 -206 c51 -16 122
-53 143 -75 16 -18 16 -23 2 -56 -31 -74 -21 -99 71 -201 80 -88 115 -155 153
-291 36 -131 122 -506 119 -516 -5 -11 -196 233 -310 396 -138 195 -301 458
-343 548 -35 78 -60 176 -48 188 13 12 105 26 143 21 19 -2 51 -9 70 -14z
m740 -1226 c0 -15 -5 -22 -12 -20 -8 3 -14 25 -15 54 l-2 49 14 -30 c8 -16 14
-40 15 -53z"/>
<path d="M4992 9349 c2 -6 8 -10 13 -10 5 0 11 4 13 10 2 6 -4 11 -13 11 -9 0
-15 -5 -13 -11z"/>
<path d="M7966 9113 c-11 -11 -6 -23 9 -23 8 0 15 4 15 9 0 13 -16 22 -24 14z"/>
<path d="M8102 8863 c-17 -7 -5 -23 19 -23 10 0 19 7 19 15 0 15 -14 18 -38 8z"/>
<path d="M8102 8813 c6 -8 15 -12 20 -11 15 5 5 22 -14 23 -14 1 -15 -1 -6
-12z"/>
</g>
</svg>
