<?xml version="1.0" standalone="no"?>
<!DOCTYPE svg PUBLIC "-//W3C//DTD SVG 20010904//EN"
 "http://www.w3.org/TR/2001/REC-SVG-20010904/DTD/svg10.dtd">
<svg version="1.0" xmlns="http://www.w3.org/2000/svg"
 width="1280.000000pt" height="1280.000000pt" viewBox="0 0 1280.000000 1280.000000"
 preserveAspectRatio="xMidYMid meet">
<metadata>
Created by potrace 1.15, written by Peter Selinger 2001-2017
</metadata>
<g transform="translate(0.000000,1280.000000) scale(0.100000,-0.100000)"
fill="#000000" stroke="none">
<path d="M8511 12635 c-278 -114 -570 -344 -760 -598 -52 -70 -78 -96 -89 -93
-158 48 -431 34 -570 -29 -59 -27 -159 -117 -198 -180 l-27 -41 -91 -12 c-121
-17 -244 -75 -338 -161 -54 -50 -72 -61 -100 -61 -19 0 -60 -7 -91 -15 -189
-49 -320 -195 -375 -420 -44 -177 -45 -266 -2 -395 39 -119 88 -206 140 -248
58 -48 72 -82 71 -169 -2 -143 46 -272 137 -366 52 -54 222 -202 249 -216 35
-18 143 -13 208 9 32 11 60 20 62 20 2 0 -8 -22 -21 -48 -13 -27 -30 -77 -37
-113 -7 -35 -13 -65 -14 -66 -1 -2 -172 37 -381 86 -244 57 -406 100 -454 120
-41 18 -232 90 -425 161 -348 127 -351 128 -550 245 -110 65 -328 188 -485
272 -157 85 -325 181 -375 213 -105 67 -198 115 -274 141 -49 17 -88 19 -386
19 l-332 0 -44 -24 c-79 -45 -224 -86 -340 -99 -104 -11 -110 -13 -116 -36
-13 -53 78 -82 197 -63 36 5 73 13 82 17 16 6 16 4 4 -22 -20 -39 -39 -169
-32 -206 3 -17 14 -42 23 -56 23 -35 24 -47 5 -64 -20 -18 -991 -727 -996
-727 -1 0 -20 45 -41 101 -21 55 -41 97 -45 92 -4 -4 -35 -49 -69 -100 l-61
-92 -121 -3 -121 -3 67 -87 67 -86 -26 -128 c-14 -70 -24 -129 -22 -131 2 -2
51 18 109 46 l106 49 108 -73 c59 -41 109 -71 111 -67 1 4 -4 65 -11 135 l-13
128 113 71 c71 45 109 74 101 79 -7 3 -55 16 -105 29 -92 22 -93 22 -70 40 12
9 260 184 550 389 432 305 531 370 543 360 33 -27 105 -4 374 125 l265 127 68
-28 c112 -44 211 -117 376 -277 161 -156 283 -254 431 -346 93 -58 303 -166
390 -200 30 -12 143 -68 250 -126 314 -167 767 -367 1065 -470 44 -15 82 -29
84 -31 2 -1 -3 -11 -11 -20 -31 -35 -58 -104 -67 -169 -6 -37 -16 -71 -23 -75
-22 -14 -326 -10 -414 5 -188 33 -258 64 -387 168 -428 344 -800 435 -1094
266 -152 -87 -245 -201 -302 -373 -63 -188 -66 -220 -66 -765 0 -420 -3 -509
-17 -591 -37 -208 -86 -381 -163 -584 -58 -152 -75 -236 -96 -490 -32 -382 37
-757 159 -867 73 -66 114 -45 132 68 5 33 19 118 31 189 56 339 180 591 356
724 80 60 195 111 267 118 49 4 52 3 73 -30 13 -20 39 -43 62 -53 27 -12 44
-27 50 -46 7 -18 23 -34 45 -43 22 -9 36 -23 38 -36 6 -45 46 -61 156 -62 119
-2 110 8 119 -147 6 -117 -9 -216 -53 -350 -37 -111 -116 -270 -182 -369 -82
-121 -118 -187 -137 -253 -18 -63 -14 -89 18 -118 23 -22 97 -27 141 -10 31
12 32 10 4 -43 -14 -28 -23 -67 -26 -119 -4 -69 -2 -83 25 -140 17 -35 50 -84
74 -110 24 -25 289 -264 589 -531 534 -474 549 -489 774 -740 188 -210 237
-271 269 -334 56 -112 114 -188 210 -279 95 -89 156 -128 288 -186 73 -31 145
-71 188 -104 1 -1 -4 -13 -13 -26 -21 -30 -20 -76 3 -114 54 -89 238 -89 291
-1 l18 30 6 -44 c4 -24 33 -282 66 -574 32 -291 68 -587 79 -657 26 -160 26
-162 -4 -178 -63 -34 -86 -141 -45 -208 21 -34 87 -71 128 -72 15 0 26 -9 34
-27 40 -101 102 -217 133 -251 50 -56 94 -70 143 -44 69 36 77 62 77 267 -1
144 -6 215 -28 357 -15 97 -27 207 -27 245 0 92 23 234 50 313 31 91 38 255
13 324 -25 69 -73 105 -147 113 -65 7 -67 9 -89 108 -40 179 -47 562 -13 750
22 128 31 395 17 545 -23 246 -76 533 -120 650 -23 60 -87 171 -155 268 -61
85 -80 172 -79 352 0 74 8 187 17 251 26 180 35 430 24 666 l-9 213 33 44 c33
42 34 46 28 107 -4 35 -6 65 -6 65 1 1 26 4 56 5 l55 4 18 -70 c11 -41 21
-125 24 -202 6 -130 5 -134 -22 -195 -75 -167 3 -378 140 -378 58 0 107 37
141 106 52 107 34 250 -45 339 -41 47 -110 247 -135 391 -5 31 -4 32 57 54
137 49 251 138 327 255 24 36 41 67 39 70 -3 2 -50 13 -105 24 -158 32 -260
76 -286 124 -11 20 -78 169 -78 174 0 1 25 -14 56 -32 123 -74 359 -156 629
-217 l140 -32 188 -120 c169 -107 193 -127 232 -181 78 -109 142 -258 185
-425 l21 -81 -24 -32 c-36 -48 -50 -102 -45 -171 6 -74 25 -114 79 -166 159
-154 430 -38 431 184 1 112 -64 207 -166 244 l-51 19 -127 239 c-70 131 -138
274 -152 317 -48 145 -30 292 50 412 48 72 62 83 155 115 171 60 277 173 310
332 7 31 54 134 113 248 110 212 129 263 147 406 26 206 -30 399 -162 562 -66
82 -237 226 -382 323 -315 208 -672 327 -1070 355 -54 3 -96 8 -95 10 10 10
222 57 334 74 168 25 270 31 609 34 399 4 468 22 704 179 74 50 146 110 237
202 117 117 147 154 287 363 133 197 167 254 218 375 151 350 228 657 250 992
10 149 14 171 59 310 117 366 147 635 89 790 -29 77 -104 155 -173 178 -159
54 -380 12 -695 -133 -69 -32 -137 -61 -151 -65 -14 -4 -68 -25 -120 -47 -369
-156 -683 -377 -997 -701 l-132 -136 -4 467 -3 467 -27 103 c-42 161 -94 253
-161 283 -57 26 -79 24 -175 -16z m-5342 -2161 c41 -52 33 -63 -125 -168 -80
-54 -147 -96 -149 -94 -2 2 5 34 15 71 14 48 33 86 72 136 57 75 62 78 125 80
34 1 45 -4 62 -25z m3937 -59 c7 -18 -9 -61 -37 -95 l-20 -25 15 32 c9 18 16
48 16 68 0 35 16 48 26 20z m-635 -4977 l140 -73 84 0 83 0 155 -505 c113
-367 159 -534 171 -612 19 -130 65 -276 107 -343 45 -71 256 -848 298 -1099
17 -99 29 -182 27 -184 -7 -6 -120 134 -173 215 -29 45 -75 129 -102 187 -80
170 -153 233 -280 242 -89 7 -191 39 -234 75 -48 39 -174 191 -235 281 -104
156 -191 342 -269 578 -57 173 -119 297 -202 407 -106 140 -247 250 -414 324
l-58 26 49 44 c27 24 89 66 138 94 177 98 328 207 483 348 41 37 78 67 83 67
5 0 72 -33 149 -72z"/>
</g>
</svg>
