<?xml version="1.0" standalone="no"?>
<!DOCTYPE svg PUBLIC "-//W3C//DTD SVG 20010904//EN"
 "http://www.w3.org/TR/2001/REC-SVG-20010904/DTD/svg10.dtd">
<svg version="1.0" xmlns="http://www.w3.org/2000/svg"
 width="443.000000pt" height="1280.000000pt" viewBox="0 0 443.000000 1280.000000"
 preserveAspectRatio="xMidYMid meet">
<metadata>
Created by potrace 1.15, written by Peter Selinger 2001-2017
</metadata>
<g transform="translate(0.000000,1280.000000) scale(0.100000,-0.100000)"
fill="#000000" stroke="none">
<path d="M2110 12770 c0 -16 16 -59 36 -95 32 -58 36 -72 30 -113 -3 -25 -26
-87 -50 -137 -60 -123 -69 -162 -69 -290 0 -127 9 -164 70 -299 l46 -99 -16
-46 c-9 -25 -37 -98 -64 -161 l-47 -115 -6 -164 -5 -163 -50 -19 c-59 -23 -87
-20 -172 20 -70 33 -87 57 -97 138 -8 64 -39 155 -65 192 -33 46 -77 61 -178
61 -161 0 -246 45 -272 142 -35 134 -134 203 -257 178 -45 -10 -54 -15 -54
-33 0 -36 12 -44 69 -49 47 -5 60 -11 87 -41 28 -30 33 -44 38 -103 19 -207
87 -292 270 -334 59 -13 100 -28 111 -40 11 -12 23 -54 31 -112 24 -162 37
-192 113 -270 68 -69 68 -69 58 -107 -10 -37 -13 -39 -110 -75 -55 -20 -127
-40 -161 -43 -55 -5 -70 -2 -157 35 -107 45 -177 62 -249 62 -65 0 -84 -8
-206 -90 -154 -102 -241 -121 -374 -79 -76 24 -187 29 -246 11 -50 -15 -115
-58 -145 -95 -22 -29 -22 -29 -2 -49 20 -20 20 -20 67 14 43 30 54 33 119 33
67 0 81 -4 187 -55 l115 -55 125 0 125 0 115 53 c144 65 163 66 289 8 176 -81
210 -89 342 -83 64 3 127 10 139 17 32 17 41 2 43 -66 2 -48 -4 -72 -31 -129
-42 -88 -56 -103 -101 -110 -151 -24 -234 -63 -264 -122 -8 -16 -17 -79 -22
-148 -10 -178 -32 -217 -146 -260 -84 -32 -113 -55 -141 -108 -29 -55 -30
-163 -2 -204 l19 -28 8 63 c7 49 15 69 38 91 31 32 98 51 175 51 82 0 185 71
218 150 8 19 22 71 31 115 22 111 34 122 165 141 58 8 123 23 145 33 42 19
155 127 155 149 0 6 6 12 13 12 14 0 103 -33 112 -42 3 -3 -11 -20 -32 -38
-58 -50 -62 -64 -63 -183 0 -101 1 -109 25 -132 13 -14 33 -25 45 -25 11 0 23
-7 27 -17 3 -9 -15 -100 -42 -202 -99 -387 -90 -632 39 -1081 l35 -120 -29
-98 c-48 -159 -87 -359 -99 -497 -19 -216 9 -443 91 -745 l32 -114 -32 -126
c-74 -288 -98 -481 -87 -690 7 -135 48 -369 91 -523 l27 -97 -31 -122 c-65
-256 -76 -342 -76 -593 1 -211 3 -241 28 -365 15 -74 39 -178 53 -232 l25 -96
-25 -99 c-67 -259 -93 -512 -77 -740 9 -126 59 -416 89 -520 7 -24 4 -51 -10
-105 -10 -40 -31 -138 -45 -218 -25 -132 -27 -167 -27 -385 1 -249 9 -327 70
-608 14 -67 15 -87 4 -135 -45 -205 -84 -508 -85 -674 -1 -93 0 -98 28 -127
15 -16 40 -32 54 -36 34 -8 42 -21 42 -66 0 -30 6 -39 46 -67 l46 -33 46 29
c42 26 48 33 52 72 5 41 9 46 54 69 65 33 79 67 73 175 -10 181 -45 408 -88
578 -25 101 -24 169 5 286 102 405 103 663 5 1054 -16 64 -29 135 -29 158 0
23 15 103 34 178 72 288 88 423 74 627 -8 132 -21 204 -76 433 l-36 154 28
106 c16 59 42 168 59 242 29 128 30 147 31 360 0 249 -8 308 -81 576 l-35 130
31 110 c133 470 136 737 14 1191 l-35 132 35 123 c82 285 113 516 96 733 -10
142 -54 369 -97 510 l-28 90 28 95 c145 492 149 823 12 1292 -4 13 4 18 33 24
21 4 41 12 45 18 4 6 8 60 8 119 0 121 -12 162 -62 214 l-31 33 39 17 c57 25
110 21 181 -11 86 -39 100 -57 117 -154 18 -105 55 -186 96 -211 23 -14 60
-21 138 -26 188 -12 224 -31 268 -146 48 -127 118 -178 230 -166 57 6 84 20
84 43 0 10 -15 14 -53 14 -45 0 -57 4 -79 28 -39 42 -46 61 -57 164 -10 105
-24 139 -77 198 -37 41 -100 67 -216 90 -72 14 -94 40 -103 118 -12 108 -27
176 -45 211 -18 35 -123 144 -147 152 -10 3 -10 12 -1 41 10 35 17 40 87 67
89 34 188 61 225 61 14 0 68 -17 119 -39 108 -44 176 -61 252 -61 70 0 92 9
196 80 47 33 110 69 140 81 70 28 165 29 239 4 83 -29 219 -27 287 4 54 24
159 123 148 140 -3 5 -31 -6 -63 -26 -54 -33 -60 -34 -132 -30 -66 4 -88 11
-185 58 l-109 54 -126 0 -125 0 -115 -55 c-137 -65 -178 -70 -262 -26 -84 44
-190 84 -254 95 -58 10 -240 2 -276 -13 -12 -6 -18 0 -23 26 -3 18 -11 45 -16
59 -9 22 -5 41 22 104 38 91 57 106 162 125 177 31 237 103 237 284 0 45 5 99
11 121 15 54 67 100 135 120 110 32 174 134 174 276 0 63 -12 101 -26 86 -4
-4 -11 -35 -16 -69 -4 -33 -13 -67 -19 -74 -21 -26 -86 -47 -166 -55 -88 -9
-124 -23 -185 -71 -47 -36 -73 -92 -98 -204 -21 -99 -44 -129 -103 -138 -142
-21 -187 -30 -223 -47 -39 -19 -146 -119 -155 -147 -3 -9 -19 -6 -64 11 l-60
23 -32 89 c-50 143 -51 167 -9 268 48 114 66 195 66 295 0 92 -8 115 -86 233
-70 106 -88 154 -88 234 0 39 8 95 18 125 25 79 18 276 -11 341 -20 44 -86
119 -105 119 -4 0 -8 -13 -8 -30z"/>
</g>
</svg>
