<?xml version="1.0" standalone="no"?>
<!DOCTYPE svg PUBLIC "-//W3C//DTD SVG 20010904//EN"
 "http://www.w3.org/TR/2001/REC-SVG-20010904/DTD/svg10.dtd">
<svg version="1.0" xmlns="http://www.w3.org/2000/svg"
 width="640.000000pt" height="1280.000000pt" viewBox="0 0 640.000000 1280.000000"
 preserveAspectRatio="xMidYMid meet">
<metadata>
Created by potrace 1.15, written by Peter Selinger 2001-2017
</metadata>
<g transform="translate(0.000000,1280.000000) scale(0.100000,-0.100000)"
fill="#000000" stroke="none">
<path d="M3245 12793 c-358 -28 -682 -82 -900 -148 -60 -19 -158 -59 -217 -90
l-107 -56 5 -47 c3 -26 9 -76 14 -112 5 -36 14 -108 20 -160 6 -52 15 -117 20
-145 5 -27 14 -88 20 -135 6 -47 18 -130 26 -185 16 -107 64 -570 64 -621 0
-27 -8 -37 -59 -72 -114 -80 -191 -186 -210 -287 -11 -59 1 -149 27 -207 26
-57 100 -142 173 -198 l59 -45 0 -160 c0 -88 -5 -504 -10 -925 -5 -421 -14
-1222 -20 -1780 -5 -558 -13 -1119 -16 -1246 l-6 -231 -117 -53 c-586 -265
-1042 -663 -1360 -1188 -261 -432 -427 -929 -472 -1416 -16 -178 -6 -523 20
-687 97 -608 341 -1140 724 -1584 462 -536 1167 -903 1917 -997 150 -19 514
-16 670 6 551 75 1125 322 1570 676 134 107 333 305 440 440 371 465 629 1094
696 1691 22 195 14 549 -15 734 -88 547 -322 1082 -657 1501 -261 328 -612
604 -996 784 l-117 55 -1 90 c0 50 4 428 10 840 5 413 14 1189 20 1725 5 536
13 1133 16 1327 l6 352 61 37 c83 51 168 140 203 210 26 52 29 70 29 149 0 79
-4 97 -29 144 -37 72 -112 150 -200 208 -39 26 -72 48 -73 48 0 0 5 72 13 160
7 88 18 214 24 280 5 66 19 228 30 360 11 132 25 292 30 355 5 63 14 171 20
239 6 68 10 124 8 125 -2 1 -34 16 -73 34 -309 139 -702 215 -1095 210 -80 -1
-163 -3 -185 -5z m-1040 -1913 c7 -155 17 -181 92 -251 58 -54 113 -88 213
-129 119 -49 216 -79 335 -105 198 -42 286 -50 570 -50 295 1 368 8 592 61
216 51 407 165 464 275 23 47 25 128 3 170 -11 23 -14 44 -9 84 l7 54 57 -43
c207 -159 205 -384 -3 -537 -30 -22 -42 -26 -48 -17 -6 10 -8 9 -8 -4 0 -21
-63 -58 -186 -106 -290 -115 -589 -159 -1004 -149 -296 7 -495 38 -710 108
-132 43 -331 140 -357 172 -12 16 -27 25 -36 22 -21 -9 -127 100 -157 160 -65
132 -20 273 123 386 27 22 51 38 53 36 2 -2 6 -63 9 -137z m2090 -276 c-101
-78 -307 -148 -528 -179 -196 -28 -589 -20 -825 17 -117 18 -76 20 73 3 161
-18 568 -20 713 -4 204 22 388 73 507 139 76 42 91 48 60 24z m-1438 -140 c-3
-3 -12 -4 -19 -1 -8 3 -5 6 6 6 11 1 17 -2 13 -5z m-521 -262 c32 -16 82 -37
109 -47 l50 -17 -2 -202 c-2 -110 -4 -309 -6 -441 -3 -211 -5 -244 -22 -275
-24 -47 -45 -126 -45 -175 0 -36 21 -142 48 -246 5 -22 8 -239 7 -515 -1 -264
1 -427 4 -364 4 63 8 100 9 83 2 -26 7 -33 22 -33 11 0 20 5 20 10 0 6 9 10
20 10 13 0 20 7 20 20 0 13 7 20 20 20 11 0 20 5 20 10 0 6 9 10 20 10 11 0
20 6 20 13 0 7 9 19 20 27 11 8 20 24 20 36 0 17 5 20 25 16 l26 -4 -26 58
c-72 159 -1 27 99 -185 120 -257 172 -477 146 -622 -13 -73 -41 -131 -102
-214 -196 -267 -265 -382 -328 -539 -55 -138 -108 -364 -125 -528 l-7 -66 -74
-27 c-41 -14 -80 -23 -86 -19 -25 16 12 4234 37 4234 1 0 28 -13 61 -28z
m2048 -962 c-6 -503 -17 -1374 -23 -1935 -6 -561 -14 -1097 -17 -1191 l-6
-171 -77 29 c-168 66 -390 127 -572 157 l-103 17 -43 99 c-72 163 -131 335
-141 410 -18 132 14 246 101 360 29 39 83 110 120 158 87 114 105 152 127 259
15 70 37 126 104 261 99 200 136 303 143 402 6 79 -11 159 -29 134 -7 -11 -8
-9 -4 5 8 24 -23 73 -81 127 -70 65 -121 97 -283 176 -80 40 -164 88 -188 108
-57 49 -127 142 -160 212 -39 83 -38 183 2 270 15 34 39 71 52 84 13 12 21 26
17 32 -3 6 -1 7 6 3 10 -6 131 78 131 92 0 4 -26 -14 -98 -69 -25 -19 -52 -15
-52 7 0 8 -4 14 -10 14 -5 0 -10 9 -10 20 0 11 -4 20 -10 20 -5 0 -10 7 -10
15 0 8 -7 15 -15 15 -8 0 -15 7 -15 15 0 9 -9 15 -25 15 -22 0 -25 4 -25 35 0
28 -4 35 -20 35 -16 0 -20 7 -20 34 0 33 -2 35 -37 38 -36 3 -38 5 -41 41 -3
29 -7 37 -23 37 -13 0 -19 7 -19 23 0 17 11 30 40 46 57 32 50 36 -10 6 -31
-16 -48 -30 -44 -37 4 -7 3 -8 -4 -4 -6 4 -43 -9 -81 -29 -39 -19 -72 -35 -73
-35 -2 0 -2 105 0 233 l3 233 92 -13 c133 -18 525 -36 642 -29 289 19 514 67
735 160 48 20 56 21 60 7 3 -9 1 -428 -6 -931z m-785 -716 c14 -12 -19 -1 -35
12 -18 14 -18 14 6 3 14 -6 27 -13 29 -15z m193 -100 l43 -30 -10 -380 c-9
-335 -13 -383 -29 -415 -15 -29 -23 -35 -42 -31 -23 4 -24 7 -22 76 2 39 2
108 0 154 -2 75 -4 82 -23 82 -12 0 -17 4 -14 11 4 6 4 80 0 165 l-7 154 -36
0 -35 0 7 80 c5 62 4 80 -6 80 -10 0 -12 19 -10 74 l4 74 69 -32 c38 -18 88
-45 111 -62z m195 -311 c-3 -10 -5 -4 -5 12 0 17 2 24 5 18 2 -7 2 -21 0 -30z
m-250 -675 c-3 -8 -6 -5 -6 6 -1 11 2 17 5 13 3 -3 4 -12 1 -19z m-439 -1265
c-27 -2 -69 -2 -95 0 -27 2 -5 3 47 3 52 0 74 -1 48 -3z m205 -10 c-7 -2 -19
-2 -25 0 -7 3 -2 5 12 5 14 0 19 -2 13 -5z m282 -85 c160 -32 288 -68 468
-130 l87 -31 0 -88 c0 -49 -3 -89 -6 -89 -3 0 -18 8 -32 19 -51 36 -188 99
-272 126 -90 28 -299 75 -338 75 -18 0 -27 11 -43 48 -11 26 -27 60 -34 75
l-14 29 42 -7 c23 -4 87 -16 142 -27z m-1395 -138 c0 -57 -2 -61 -27 -71 -16
-5 -49 -20 -74 -33 l-47 -23 -6 45 c-12 90 -13 88 67 115 39 14 75 26 80 26 4
1 7 -26 7 -59z m1445 -49 c198 -49 388 -122 463 -179 l23 -18 -22 -69 c-11
-39 -23 -72 -24 -74 -2 -1 -32 6 -67 18 -35 11 -155 45 -267 76 -200 54 -282
88 -295 121 -3 9 3 28 14 44 12 17 20 44 20 69 0 50 -2 50 155 12z m-1739
-200 c-97 -144 -30 -268 209 -386 109 -54 308 -120 332 -111 8 4 13 -3 13 -18
0 -36 -82 -121 -138 -143 -93 -36 -265 -17 -431 47 -110 43 -239 134 -268 189
-13 24 -23 39 -23 32 0 -19 26 -64 49 -85 17 -15 18 -22 9 -40 -6 -11 -16 -24
-22 -28 -6 -4 7 -8 29 -9 22 -1 -3 -5 -55 -10 -169 -13 -276 -70 -409 -217
-70 -77 -151 -180 -151 -192 0 -3 36 -23 80 -45 44 -21 78 -40 76 -42 -2 -2
-51 20 -109 49 -59 28 -107 50 -109 48 -2 -3 -48 -97 -103 -210 -77 -159 -111
-217 -151 -260 -28 -30 -60 -68 -71 -85 -16 -23 -41 -37 -105 -58 -45 -16
-123 -48 -173 -71 -91 -44 -215 -128 -215 -146 0 -5 -4 -10 -9 -10 -10 0 29
129 84 275 110 294 295 620 491 865 83 104 302 324 404 407 214 172 473 331
720 439 l75 33 3 -83 c3 -80 2 -85 -32 -135z m2594 59 c235 -127 426 -273 635
-485 223 -226 387 -457 530 -750 401 -819 437 -1647 108 -2480 -122 -309 -278
-580 -475 -827 -93 -116 -303 -328 -398 -402 -43 -34 -12 1 102 115 185 184
260 274 388 467 216 323 358 688 424 1082 37 219 51 480 37 670 -12 152 -32
342 -37 349 -2 2 -11 -2 -21 -10 -15 -13 -16 -12 -8 6 17 42 17 132 0 184 -46
139 -263 283 -589 391 l-128 43 -18 42 c-37 87 -110 148 -221 185 -64 22 -175
29 -234 16 -30 -7 -31 -6 -46 51 l-15 58 -60 -2 -59 -3 -25 41 c-35 58 -182
206 -265 267 -38 29 -126 80 -194 115 -101 50 -134 62 -170 61 -41 -1 -43 0
-18 9 21 7 43 4 92 -14 59 -21 64 -21 80 -6 9 10 34 20 56 23 21 4 36 10 34
15 -3 4 5 11 17 15 30 9 69 40 61 48 -3 3 8 6 25 6 18 0 32 5 32 10 0 6 9 10
19 10 11 0 26 6 33 14 8 7 30 19 50 26 20 8 35 17 33 21 -3 3 14 10 38 14 41
7 42 7 20 22 -13 9 -23 19 -23 24 0 5 15 -4 33 -19 17 -16 108 -96 200 -176
92 -81 199 -184 238 -229 104 -122 240 -330 319 -489 38 -78 73 -144 76 -147
4 -3 2 4 -5 16 -17 34 -13 52 14 59 14 3 25 10 25 15 0 5 9 9 20 9 24 0 70 21
70 32 0 4 11 8 24 8 13 0 26 5 28 12 2 6 14 -4 26 -23 54 -85 2 23 -121 251
-22 41 -69 120 -104 175 -35 55 -52 87 -38 72 24 -27 27 -28 63 -16 20 6 45
15 54 20 10 5 23 9 29 9 7 0 22 12 34 26 l22 26 48 -68 c53 -76 79 -106 50
-59 -85 140 -291 384 -431 510 -156 141 -206 180 -334 260 -69 43 -135 85
-147 93 -13 8 -23 12 -23 9 0 -3 23 -19 50 -37 28 -18 50 -34 50 -37 0 -2 -4
-1 -10 2 -5 3 -10 -1 -10 -10 0 -9 -4 -13 -10 -10 -5 3 -10 -1 -10 -9 0 -8
-12 -27 -26 -41 l-26 -26 34 -32 c19 -18 27 -27 19 -20 -65 48 -191 125 -235
143 l-53 21 -1 52 c-1 29 -4 116 -8 194 l-5 142 83 -39 c46 -21 126 -62 178
-90z m-2415 10 c-8 -13 29 -140 56 -192 11 -21 17 -38 14 -38 -15 0 -85 182
-85 222 0 10 5 18 11 18 5 0 7 -5 4 -10z m-139 -287 c10 -15 34 -46 53 -67
l36 -40 -42 32 c-48 37 -83 103 -82 153 1 34 1 34 9 -8 5 -23 17 -54 26 -70z
m255 0 c13 -16 12 -17 -3 -4 -10 7 -18 15 -18 17 0 8 8 3 21 -13z m-138 -10
c-7 -2 -19 -2 -25 0 -7 3 -2 5 12 5 14 0 19 -2 13 -5z m67 -23 c21 -11 41 -24
45 -29 4 -8 -77 32 -94 46 -13 10 15 0 49 -17z m-70 -35 c19 -19 32 -35 29
-35 -3 0 -20 16 -39 35 -19 19 -32 35 -29 35 3 0 20 -16 39 -35z m120 -105 c8
-5 11 -10 5 -10 -5 0 -17 5 -25 10 -8 5 -10 10 -5 10 6 0 17 -5 25 -10z m50
-20 c8 -5 11 -10 5 -10 -5 0 -17 5 -25 10 -8 5 -10 10 -5 10 6 0 17 -5 25 -10z
m1477 -356 c-3 -3 -12 -4 -19 -1 -8 3 -5 6 6 6 11 1 17 -2 13 -5z m-40 -10
c-3 -3 -12 -4 -19 -1 -8 3 -5 6 6 6 11 1 17 -2 13 -5z m-230 -40 c-3 -3 -12
-4 -19 -1 -8 3 -5 6 6 6 11 1 17 -2 13 -5z m-2187 -254 c8 -5 11 -10 5 -10 -5
0 -17 5 -25 10 -8 5 -10 10 -5 10 6 0 17 -5 25 -10z m-1115 -1044 c13 -19 12
-38 -5 -146 -43 -288 -53 -436 -41 -632 12 -184 28 -313 56 -442 23 -107 11
-89 -18 26 -94 378 -110 748 -52 1148 20 131 25 145 37 101 5 -18 16 -43 23
-55z"/>
<path d="M3479 9353 c-13 -16 -12 -17 4 -4 9 7 17 15 17 17 0 8 -8 3 -21 -13z"/>
<path d="M1750 5366 c0 -2 8 -10 18 -17 15 -13 16 -12 3 4 -13 16 -21 21 -21
13z"/>
</g>
</svg>
