<?xml version="1.0" standalone="no"?>
<!DOCTYPE svg PUBLIC "-//W3C//DTD SVG 20010904//EN"
 "http://www.w3.org/TR/2001/REC-SVG-20010904/DTD/svg10.dtd">
<svg version="1.0" xmlns="http://www.w3.org/2000/svg"
 width="1024.000000pt" height="1280.000000pt" viewBox="0 0 1024.000000 1280.000000"
 preserveAspectRatio="xMidYMid meet">
<metadata>
Created by potrace 1.15, written by Peter Selinger 2001-2017
</metadata>
<g transform="translate(0.000000,1280.000000) scale(0.100000,-0.100000)"
   fill="#ffffff" stroke="#000000">
<path d="M4402 12735 c-77 -25 -150 -63 -172 -89 -9 -12 4 -10 54 9 75 28 86
26 24 -6 -49 -24 -166 -117 -248 -195 -30 -29 -71 -62 -90 -74 -30 -19 -32
-21 -10 -17 14 2 33 8 44 12 16 7 18 5 11 -26 -9 -46 -45 -106 -92 -154 l-38
-39 38 28 c34 25 37 25 25 7 -7 -12 -28 -31 -45 -42 -18 -12 -33 -25 -33 -30
0 -15 33 -10 68 11 18 11 34 20 37 20 2 0 -17 -44 -43 -97 -45 -94 -47 -100
-49 -197 l-2 -101 12 80 12 80 8 -60 c4 -32 14 -66 22 -75 8 -9 22 -66 31
-128 10 -62 21 -112 25 -112 4 0 18 16 30 36 l22 37 23 -50 c31 -72 41 -73 49
-6 3 32 11 69 17 83 10 23 12 18 24 -50 7 -41 20 -95 29 -119 8 -24 15 -54 15
-68 0 -13 4 -22 9 -19 5 3 25 -26 45 -64 35 -65 56 -93 56 -72 0 5 -14 54 -30
108 -17 56 -27 101 -22 106 5 5 27 -25 51 -72 23 -44 46 -78 51 -75 5 3 24
-26 43 -64 33 -65 35 -78 42 -203 7 -129 -8 -353 -24 -371 -4 -4 -36 3 -71 14
-50 17 -67 19 -79 10 -9 -6 -40 -23 -70 -38 -46 -22 -62 -25 -112 -19 -73 7
-94 -1 -163 -63 -64 -58 -102 -71 -208 -71 -42 0 -88 -5 -102 -11 -15 -7 -39
-38 -61 -80 -34 -65 -38 -69 -71 -69 -29 0 -45 -10 -90 -51 -30 -29 -54 -57
-54 -63 0 -7 18 -30 41 -51 22 -22 55 -67 74 -99 l34 -60 -24 -45 c-12 -25
-35 -82 -50 -126 -15 -44 -40 -102 -55 -130 -15 -27 -31 -63 -35 -80 -7 -34
-32 -65 -51 -65 -20 0 -74 -69 -74 -94 0 -45 -124 -290 -157 -309 -21 -12 -43
-63 -43 -97 0 -41 -16 -70 -39 -70 -39 0 -79 -52 -150 -195 -22 -44 -51 -97
-65 -118 -14 -21 -26 -42 -26 -47 0 -6 -4 -10 -9 -10 -8 0 -21 -18 -66 -90 -5
-9 -38 -50 -72 -92 -35 -42 -63 -86 -63 -97 0 -35 -22 -69 -52 -82 -37 -15
-88 -77 -88 -107 0 -13 -7 -37 -16 -54 -9 -17 -41 -92 -73 -167 -58 -138 -206
-400 -247 -436 -12 -11 -25 -36 -28 -55 -15 -82 -19 -91 -47 -105 -38 -20
-302 -290 -311 -318 -37 -126 -52 -225 -39 -266 11 -36 139 -215 170 -238 9
-6 42 -17 74 -23 61 -12 87 -4 87 27 0 8 4 11 10 8 13 -8 70 23 70 38 0 6 -5
19 -10 27 -6 10 1 34 27 80 19 36 47 88 62 115 15 28 53 89 86 138 49 74 62
87 85 87 15 0 39 9 52 20 14 11 37 24 52 30 14 5 32 22 38 37 18 42 49 73 73
73 23 0 85 83 85 115 0 29 39 75 65 75 14 0 35 14 54 35 32 37 35 44 31 82 -2
30 30 72 55 73 33 1 76 47 79 83 3 32 44 109 66 122 8 5 8 11 1 19 -8 10 -2
23 22 50 43 51 79 86 120 118 22 18 50 59 77 115 23 49 46 96 51 105 11 22 20
41 45 91 10 21 45 66 79 100 34 34 67 71 74 82 15 26 11 -10 -30 -235 -144
-788 -406 -1695 -1089 -3770 -369 -1122 -452 -1400 -620 -2071 -202 -809 -239
-1041 -190 -1185 17 -47 30 -65 65 -92 60 -44 109 -54 525 -106 423 -54 445
-58 508 -91 l50 -26 -10 -42 c-14 -64 -3 -98 50 -149 150 -146 348 -192 724
-167 171 11 189 11 210 -5 69 -50 111 -73 186 -103 181 -71 431 -126 619 -138
l102 -6 17 33 17 32 22 -49 c41 -92 60 -99 220 -76 131 18 159 26 207 59 56
38 88 101 88 172 l0 50 34 0 c21 0 54 -12 85 -31 61 -38 149 -58 259 -59 45 0
82 -3 82 -7 0 -5 10 -21 23 -36 l22 -28 125 21 c283 47 727 210 875 320 76 57
112 68 240 75 267 15 440 58 645 160 219 110 429 264 471 347 l20 39 -26 64
c-30 77 -30 77 -2 73 16 -2 22 -10 22 -27 1 -36 35 -44 111 -26 80 18 119 38
164 81 60 57 120 77 248 82 l112 5 0 26 c0 14 -11 69 -24 121 l-25 95 29 30
c39 41 63 107 45 126 -7 8 -54 83 -104 168 l-92 154 -79 306 c-208 805 -514
2114 -985 4216 -234 1044 -461 1996 -509 2140 -19 55 -50 186 -70 290 -20 105
-39 200 -42 211 -6 21 -4 21 43 12 26 -5 64 -8 83 -7 57 4 73 -7 99 -66 13
-30 27 -55 31 -55 4 0 21 -13 38 -30 18 -16 38 -30 46 -30 7 0 19 -7 27 -16
12 -15 51 -38 109 -64 14 -7 40 -19 58 -28 20 -9 62 -16 110 -16 42 -1 100 -9
127 -18 121 -38 135 -41 194 -35 59 6 60 6 80 -26 11 -17 38 -50 60 -71 52
-51 78 -50 163 6 52 34 84 66 141 143 41 55 94 123 119 150 25 28 77 93 118
145 97 127 156 187 210 215 52 27 84 59 129 131 36 57 96 93 194 114 41 10 65
22 81 41 13 15 36 34 52 42 52 27 75 61 84 124 5 32 14 92 21 134 l13 76 -40
84 c-41 88 -107 169 -158 196 -27 14 -31 14 -43 -3 -7 -10 -13 -29 -13 -42 0
-23 -2 -23 -29 12 -28 35 -73 76 -84 76 -3 0 -13 -7 -21 -16 -31 -31 -16 -96
40 -170 26 -33 30 -49 15 -59 -5 -3 -21 19 -35 50 -51 112 -120 185 -148 157
-21 -21 -11 -86 26 -162 40 -83 54 -136 38 -152 -7 -7 -15 7 -26 44 -32 109
-80 150 -105 90 -10 -24 -8 -48 8 -132 12 -56 21 -110 21 -120 0 -36 -25 -42
-158 -41 l-127 2 -79 -41 c-43 -22 -109 -49 -147 -60 -40 -12 -88 -36 -116
-57 -36 -28 -58 -37 -88 -38 -56 -1 -150 -32 -184 -60 -25 -21 -35 -24 -82
-18 -30 3 -58 12 -62 19 -4 8 -16 14 -26 14 -10 0 -24 7 -31 15 -7 8 -23 15
-36 15 -12 0 -26 5 -30 11 -3 6 -21 17 -38 25 -17 8 -38 18 -46 23 -41 24 -69
33 -87 27 -25 -8 -83 35 -99 74 -10 22 -20 30 -37 30 -33 0 -286 169 -325 216
-28 34 -38 38 -94 45 -52 6 -66 12 -88 37 -14 16 -52 50 -85 74 -33 25 -70 56
-82 69 -30 34 -66 217 -61 317 l3 75 -70 20 c-61 17 -76 18 -118 7 -47 -12
-50 -11 -85 17 -83 66 -114 68 -232 13 -96 -45 -140 -49 -227 -24 l-56 16 7
60 c17 164 28 465 23 648 -5 203 -23 355 -37 315 -4 -12 -9 4 -13 46 -15 167
-108 297 -292 408 -41 25 -74 36 -123 42 -115 13 -152 29 -205 86 -27 29 -69
62 -93 73 -24 12 -44 26 -44 31 0 16 -52 31 -64 19 -15 -15 -32 -12 -71 14
-33 23 -61 30 -170 41 -25 2 -67 -5 -113 -20z m568 -185 c0 -5 -2 -10 -4 -10
-3 0 -8 5 -11 10 -3 6 -1 10 4 10 6 0 11 -4 11 -10z m-925 -866 c-5 -29 -35
-70 -35 -48 1 30 21 148 28 158 9 14 15 -69 7 -110z m1390 -658 c-24 -135 -18
-126 -82 -126 -55 0 -116 -25 -165 -68 -23 -19 -27 -9 -30 83 l-3 70 71 5 c40
3 80 12 95 21 13 9 47 56 74 105 l50 89 3 -44 c2 -25 -4 -86 -13 -135z m2168
-1236 c7 0 6 -4 -3 -10 -21 -14 -27 -12 -34 6 -5 12 -2 15 10 10 8 -3 21 -6
27 -6z m-578 -470 c3 -5 1 -10 -4 -10 -6 0 -11 5 -11 10 0 6 2 10 4 10 3 0 8
-4 11 -10z m177 -87 c71 -37 124 -69 118 -71 -7 -3 -17 1 -23 7 -6 6 -23 11
-37 11 -15 0 -35 9 -45 20 -10 11 -29 20 -42 20 -13 0 -26 7 -29 15 -3 8 -21
19 -39 25 -28 9 -57 40 -38 40 3 0 64 -30 135 -67z m-4532 -722 c-5 -11 -15
-23 -22 -27 -7 -5 -8 -2 -3 7 21 37 44 55 25 20z m-30 -44 c0 -2 -9 -12 -20
-22 -24 -21 -27 -14 -4 9 15 15 24 20 24 13z m-66 -82 c-15 -22 -31 -36 -21
-17 2 4 7 15 10 25 4 9 11 17 17 17 6 0 3 -11 -6 -25z m-644 -1644 c0 -31 -24
-69 -46 -74 -13 -2 -24 -3 -24 -2 0 8 29 71 36 78 10 10 34 9 34 -2z"/>
</g>
</svg>
